<svg width="146" height="120" viewBox="0 0 146 120" fill="none" xmlns="http://www.w3.org/2000/svg">
<path d="M35.3525 50.7895C37.0925 53.4395 40.0925 55.1795 43.5025 55.1795C48.8925 55.1795 53.2525 50.8095 53.2525 45.4295C53.2525 44.5095 53.1225 43.6195 52.8825 42.7695" stroke="white" stroke-width="3" stroke-miterlimit="10"/>
<path d="M51.4525 33.2996L49.0225 10.8896C49.0225 10.8896 65.1425 13.1996 58.5625 33.2996" stroke="white" stroke-width="3" stroke-miterlimit="10"/>
<path d="M123.663 102.13C123.663 102.13 86.3028 53.9501 82.3928 46.9901C78.7728 40.5301 73.7728 25.5401 60.1328 27.4301" stroke="white" stroke-width="3" stroke-miterlimit="10"/>
<path d="M50.8927 28.1104C50.8927 28.1104 1.58267 59.8404 2.00267 78.3004C2.07267 81.1904 3.67267 87.1404 5.62267 89.2704C7.31267 91.1204 12.3127 93.0903 14.8127 93.2403C19.6627 93.5303 22.6527 90.9304 31.7127 83.6404C37.1127 79.2904 58.9227 78.3004 58.9227 78.3004C58.9227 78.3004 76.3527 74.7403 72.0827 54.4703" stroke="white" stroke-width="3" stroke-miterlimit="10"/>
<path d="M31.7425 41.87L10.2725 6L44.6825 32.31" stroke="white" stroke-width="3" stroke-miterlimit="10"/>
<path d="M56.6426 14.4096C62.9426 11.0596 69.9326 9.13962 77.1426 9.27962C91.8926 9.56962 108.773 17.9896 114.703 32.1196C117.613 39.0496 117.603 46.7096 116.923 54.0696C116.283 61.0096 115.013 68.7196 119.103 74.9696C123.353 81.4696 133.503 83.0696 139.553 78.1896C147.203 72.0196 144.273 63.3296 140.213 56.3296" stroke="white" stroke-width="3" stroke-miterlimit="10"/>
<path d="M39.5127 29.12C42.3527 25.37 45.7227 21.95 49.4827 19.04" stroke="white" stroke-width="3" stroke-miterlimit="10"/>
<path d="M58.9229 78.2998C58.9229 78.2998 69.9529 92.8898 62.4829 119.21" stroke="white" stroke-width="3" stroke-miterlimit="10"/>
</svg>
