<svg width="76" height="128" viewBox="0 0 76 128" fill="none" xmlns="http://www.w3.org/2000/svg">
<path d="M66.83 73.2105V50.1005C66.83 46.6905 64.04 43.9005 60.63 43.9005H43.91C40.5 43.9005 37.71 41.1105 37.71 37.7005V23.7305" stroke="white" stroke-width="3" stroke-miterlimit="10"/>
<path d="M66.8301 127.86V86.3896" stroke="white" stroke-width="3" stroke-miterlimit="10"/>
<path d="M75.4202 93.3403L73.8802 94.7803L66.8302 87.1904L59.7802 94.7803L58.2402 93.3403L66.8302 84.1104L75.4202 93.3403Z" fill="white"/>
<path d="M8.58984 73.2095V49.3595C8.58984 45.9495 11.3798 43.1595 14.7898 43.1595H31.5098C34.9198 43.1595 37.7098 40.3695 37.7098 36.9595V2.26953" stroke="white" stroke-width="3" stroke-miterlimit="10"/>
<path d="M46.3001 9.23L44.7601 10.66L37.7101 3.08L30.6601 10.66L29.1201 9.23L37.7101 0L46.3001 9.23Z" fill="white"/>
<path d="M8.58984 127.86V86.3896" stroke="white" stroke-width="3" stroke-miterlimit="10"/>
<path d="M17.17 93.3403L15.64 94.7803L8.59 87.1904L1.54 94.7803L0 93.3403L8.59 84.1104L17.17 93.3403Z" fill="white"/>
</svg>
