<svg width="91" height="117" viewBox="0 0 91 117" fill="none" xmlns="http://www.w3.org/2000/svg">
<path d="M88.5703 23.7695H19.7803V114.8H88.5703V23.7695Z" stroke="white" stroke-width="3" stroke-miterlimit="10"/>
<path d="M19.61 104.97H2V2H21.7L31.78 10.95H77.57V23.77" stroke="white" stroke-width="3" stroke-miterlimit="10"/>
<path d="M60.3701 35.2803H79.8901" stroke="white" stroke-width="3" stroke-miterlimit="10"/>
<path d="M60.3701 43.8604H79.8901" stroke="white" stroke-width="3" stroke-miterlimit="10"/>
<path d="M28.46 52.4297H51.16" stroke="white" stroke-width="3" stroke-miterlimit="10"/>
<path d="M28.46 61H79.89" stroke="white" stroke-width="3" stroke-miterlimit="10"/>
<path d="M28.46 78.1396H79.89" stroke="white" stroke-width="3" stroke-miterlimit="10"/>
<path d="M28.46 69.5703H79.89" stroke="white" stroke-width="3" stroke-miterlimit="10"/>
<path d="M28.46 86.71H79.89" stroke="white" stroke-width="3" stroke-miterlimit="10"/>
<path d="M28.46 99.2803H54.67" stroke="white" stroke-width="3" stroke-miterlimit="10"/>
<path d="M69.85 106.71C72.5065 106.71 74.66 104.556 74.66 101.9C74.66 99.2434 72.5065 97.0898 69.85 97.0898C67.1935 97.0898 65.04 99.2434 65.04 101.9C65.04 104.556 67.1935 106.71 69.85 106.71Z" stroke="white" stroke-width="3" stroke-miterlimit="10"/>
<path d="M72.42 10.9499V5.62988H25.79" stroke="white" stroke-width="3" stroke-miterlimit="10"/>
</svg>
