<svg width="197" height="203" viewBox="0 0 197 203" fill="none" xmlns="http://www.w3.org/2000/svg">
<path d="M64.2103 83.4998C64.0603 85.0498 65.2003 86.4298 66.7503 86.5798C68.6903 86.7698 70.4203 85.3498 70.6003 83.4098C70.8303 80.9798 69.0603 78.8298 66.6303 78.5898H53.6903C51.2603 78.8198 49.4903 80.9798 49.7203 83.4098C49.9103 85.3498 51.6303 86.7698 53.5703 86.5798C55.1203 86.4298 56.2603 85.0498 56.1103 83.4998" stroke="white" stroke-width="3" stroke-miterlimit="10"/>
<path d="M53.5703 86.5898V134.11" stroke="white" stroke-width="3" stroke-miterlimit="10"/>
<path d="M66.75 86.5898V134.11" stroke="white" stroke-width="3" stroke-miterlimit="10"/>
<path d="M69.4 135.06H50.75V142.68H69.4V135.06Z" stroke="white" stroke-width="3" stroke-miterlimit="10"/>
<path d="M126.61 83.4998C126.46 85.0498 127.6 86.4298 129.15 86.5798C131.09 86.7698 132.82 85.3498 133 83.4098C133.23 80.9798 131.46 78.8298 129.03 78.5898H116.09C113.66 78.8198 111.89 80.9798 112.12 83.4098C112.31 85.3498 114.03 86.7698 115.97 86.5798C117.52 86.4298 118.66 85.0498 118.51 83.4998" stroke="white" stroke-width="3" stroke-miterlimit="10"/>
<path d="M115.98 86.5898V134.11" stroke="white" stroke-width="3" stroke-miterlimit="10"/>
<path d="M129.15 86.5898V134.11" stroke="white" stroke-width="3" stroke-miterlimit="10"/>
<path d="M131.8 135.06H113.15V142.68H131.8V135.06Z" stroke="white" stroke-width="3" stroke-miterlimit="10"/>
<path d="M147.76 142.68H34.9697V157.91H147.76V142.68Z" stroke="white" stroke-width="3" stroke-miterlimit="10"/>
<path d="M145.27 70.9805H37.4502V78.6005H145.27V70.9805Z" stroke="white" stroke-width="3" stroke-miterlimit="10"/>
<path d="M102.32 92.9805H80.4102V142.68H102.32V92.9805Z" stroke="white" stroke-width="3" stroke-miterlimit="10"/>
<path d="M37.4502 70.9802L91.3602 44.9902L145.27 70.9802" stroke="white" stroke-width="3" stroke-miterlimit="10"/>
<path d="M20.8503 123.63C20.8503 127.43 17.7603 130.52 13.9603 130.52H7.07031V112.14H13.9603C17.7603 112.14 20.8503 115.23 20.8503 119.03V123.62V123.63Z" stroke="white" stroke-width="3" stroke-miterlimit="10"/>
<path d="M0 116.61H7.06" stroke="white" stroke-width="3" stroke-miterlimit="10"/>
<path d="M0 126.05H7.06" stroke="white" stroke-width="3" stroke-miterlimit="10"/>
<path d="M56.9303 22.0104C53.8503 24.2304 49.5303 23.5404 47.3103 20.4604L43.2803 14.8704L58.1803 4.11035L62.2103 9.70035C64.4303 12.7804 63.7403 17.1004 60.6603 19.3204L56.9403 22.0104H56.9303Z" stroke="white" stroke-width="3" stroke-miterlimit="10"/>
<path d="M50.4199 1L54.5499 6.73" stroke="white" stroke-width="3" stroke-miterlimit="10"/>
<path d="M42.7695 6.51953L46.8995 12.2495" stroke="white" stroke-width="3" stroke-miterlimit="10"/>
<path d="M117.78 31.6601C114.62 29.5601 113.75 25.2701 115.85 22.1101L119.66 16.3701L134.97 26.5301L131.16 32.2701C129.06 35.4301 124.77 36.3001 121.61 34.2001L117.78 31.6601Z" stroke="white" stroke-width="3" stroke-miterlimit="10"/>
<path d="M135.16 18.1699L131.25 24.0499" stroke="white" stroke-width="3" stroke-miterlimit="10"/>
<path d="M127.3 12.9502L123.39 18.8402" stroke="white" stroke-width="3" stroke-miterlimit="10"/>
<path d="M176.47 110.37C173.59 107.89 173.26 103.53 175.74 100.65L180.23 95.4297L194.16 107.41L189.67 112.63C187.19 115.51 182.83 115.84 179.95 113.36L176.47 110.36V110.37Z" stroke="white" stroke-width="3" stroke-miterlimit="10"/>
<path d="M195.38 99.1396L190.78 104.49" stroke="white" stroke-width="3" stroke-miterlimit="10"/>
<path d="M188.23 92.9805L183.62 98.3405" stroke="white" stroke-width="3" stroke-miterlimit="10"/>
<path d="M53.8804 183.7C56.7604 186.18 57.0904 190.54 54.6104 193.42L50.1204 198.64L36.1904 186.66L40.6804 181.44C43.1604 178.56 47.5204 178.23 50.4004 180.71L53.8804 183.71V183.7Z" stroke="white" stroke-width="3" stroke-miterlimit="10"/>
<path d="M34.9697 194.93L39.5697 189.58" stroke="white" stroke-width="3" stroke-miterlimit="10"/>
<path d="M42.1201 201.09L46.7301 195.73" stroke="white" stroke-width="3" stroke-miterlimit="10"/>
<path d="M130.18 178.59C133.44 176.64 137.68 177.71 139.63 180.97L143.17 186.88L127.4 196.31L123.86 190.4C121.91 187.14 122.98 182.9 126.24 180.95L130.18 178.59Z" stroke="white" stroke-width="3" stroke-miterlimit="10"/>
<path d="M134.86 200.08L131.23 194.01" stroke="white" stroke-width="3" stroke-miterlimit="10"/>
<path d="M142.95 195.23L139.33 189.17" stroke="white" stroke-width="3" stroke-miterlimit="10"/>
<path d="M130.97 99.8096C138.63 101.96 142.73 108.75 147.79 114.59C152.05 119.49 158.21 122.33 164.85 121.22C166.75 120.9 168.32 120.27 170.06 119.48C172.9 118.06 174.96 115.53 177.09 113.27" stroke="white" stroke-width="3" stroke-miterlimit="10"/>
<path d="M21.9004 121.32C27.1204 121.02 31.4504 118.31 34.9304 114.55C38.4504 110.75 41.2204 106.22 45.3604 103.02C47.6104 101.28 50.2304 100.09 53.0304 99.6104" stroke="white" stroke-width="3" stroke-miterlimit="10"/>
<path d="M126.98 158.9C125.52 165.45 123.94 172.56 127.03 178.79" stroke="white" stroke-width="3" stroke-miterlimit="10"/>
<path d="M59.3799 21.4805C63.4399 27.9005 62.8099 35.6305 60.9199 42.9005C59.3399 48.5905 57.5999 53.9605 57.6899 59.8605" stroke="white" stroke-width="3" stroke-miterlimit="10"/>
<path d="M118.54 57.3104C115.25 49.3704 114.46 39.7404 119.56 32.4004" stroke="white" stroke-width="3" stroke-miterlimit="10"/>
<path d="M53.46 181.36C57.45 174.61 56.97 166.24 55.26 158.86" stroke="white" stroke-width="3" stroke-miterlimit="10"/>
</svg>
