<svg width="97" height="112" viewBox="0 0 97 112" fill="none" xmlns="http://www.w3.org/2000/svg">
<path d="M49.6582 55.9346H60.9482V58.7546H49.6582V55.9346Z" fill="white"/>
<path d="M49.6582 61.5742H60.9482V64.3942H49.6582V61.5742Z" fill="white"/>
<path d="M55.2483 2.08452C55.2483 2.08452 18.5984 -1.72548 10.9984 41.8145C10.9984 41.8145 2.34835 61.3445 2.00835 64.2845C1.70835 66.8545 9.56835 69.8145 12.7184 70.5245V84.7645C12.7184 87.0345 13.6183 89.2045 15.2283 90.8145C16.8283 92.4145 19.0084 93.3245 21.2784 93.3245H35.3783V109.745H79.7383V77.8845C96.8384 59.3845 94.9383 41.7645 94.9383 41.7645C94.9383 31.2345 90.7584 21.1445 83.3184 13.7045C75.8684 6.26452 65.7784 2.08452 55.2584 2.08452H55.2483Z" stroke="white" stroke-width="3" stroke-miterlimit="10"/>
<path d="M55.3081 23.3447C53.2281 23.3447 51.5781 24.9947 51.5781 27.0747V28.6747H59.0481V27.0747C59.0481 24.9947 57.3981 23.3447 55.3181 23.3447H55.3081Z" fill="white"/>
<path d="M55.3083 30.8145C54.7183 30.8145 54.2383 31.2945 54.2383 31.8845C54.2383 32.2545 54.4483 32.6345 54.7683 32.7945V34.5545H55.8383V32.7945C56.1583 32.6345 56.3683 32.2645 56.3683 31.8845C56.3683 31.2945 55.8883 30.8145 55.2983 30.8145H55.3083Z" fill="white"/>
<path d="M55.3081 15.0146C46.6981 15.0146 39.7881 21.9246 39.7881 30.5346C39.7881 33.9246 40.9181 37.1646 42.7481 39.7046L42.8881 39.8446C43.1681 40.2646 43.5981 40.6946 43.8781 41.1146C45.8581 43.5146 49.6681 48.7346 49.6681 53.1046H60.9581C60.9581 48.7346 64.7681 43.5046 66.7481 41.1146C67.1681 40.6946 67.4581 40.2646 67.7381 39.8446L67.8781 39.7046C69.7081 37.1646 70.8381 33.9146 70.8381 30.5346C70.8381 21.9246 63.9281 15.0146 55.3181 15.0146H55.3081ZM63.3081 37.2146H47.2981V28.6746H49.4281V27.0746C49.4281 23.8146 52.0481 21.2046 55.2981 21.2046C58.5481 21.2046 61.1681 23.8246 61.1681 27.0746V28.6746H63.2981V37.2146H63.3081Z" fill="white"/>
</svg>
